<svg xmlns="http://www.w3.org/2000/svg" width="175" height="49" fill="none" viewBox="0 0 175 49">
    <path fill="#000" fill-rule="evenodd" d="M9.466.168C5.893 1.654 1.983 5.834.75 11.086c-1.57 6.646 4.942 9.448 5.481 8.53.616-1.073-1.17-1.44-1.54-4.9-.461-4.441 1.617-9.433 4.235-11.608.492-.413.462.154.462 1.195l-.093 22.142c0 4.747-.2 6.232-.554 7.717-.354 1.5-.924 2.511-.508 2.91.493.428 2.587-.613 3.788-2.297a12.4 12.4 0 0 0 2.047-7.013c.108-3.155.093-8.162.108-11.01 0-2.603.046-10.275-.046-14.884C14.101.735 10.944-.444 9.466.184V.168Zm126.459 22.173a14.349 14.349 0 0 1-1.355 5.742c-1.309 2.634-4.05 3.445-5.22-.337-.616-2.052-.662-5.497-.2-8.376.462-2.91 1.755-5.13 3.896-4.93 2.124.199 3.11 2.91 2.879 7.9ZM100.28 37.623c-.031 4.088-.678 7.671-2.063 8.728-1.987 1.47-4.62.352-4.08-2.634.477-2.634 2.77-5.329 6.158-8.636l-.015 2.542Zm-.539-15.313c-.09 1.991-.55 3.948-1.355 5.773-1.309 2.634-4.065 3.445-5.22-.337-.77-2.588-.585-5.926-.2-8.039.508-2.725 1.725-5.267 3.896-5.267 2.125 0 3.172 2.297 2.879 7.87Zm-20.648-.03a14.542 14.542 0 0 1-1.34 5.818c-1.355 2.604-4.05 3.43-5.235-.352-.847-2.71-.554-6.431-.2-8.422.524-2.986 1.848-5.083 3.896-4.9 2.124.215 3.14 2.91 2.879 7.856Zm94.617 2.771c-.508 0-.754.536-.939 1.424-.677 3.093-1.386 3.798-2.31 3.798-1.016 0-1.94-1.531-2.186-4.594-.185-2.42-.154-6.86.092-11.285.047-.904-.215-1.792-2.663-2.68-1.047-.383-2.587-.95-3.342.888a45.246 45.246 0 0 0-3.202 10.933c0 .092-.123.107-.154-.092-.108-1.332-.401-3.766-.431-8.866 0-.995-.216-1.837-1.325-2.526-.723-.46-2.894-1.24-3.695-.306-.662.765-1.447 2.863-2.263 5.328l-1.14 3.37.016-7.473c0-.766-.524-1.026-.693-1.072a14.775 14.775 0 0 0-2.772-.567c-.739 0-.924.414-.924 1.026 0 .077-.123 7.12-.123 12.051v.704c-.416 2.267-1.755 5.345-3.218 5.345s-2.156-1.287-2.156-7.167c0-3.43.108-4.915.154-7.396.031-1.439.093-2.526.093-2.771-.016-.766-1.34-1.149-1.956-1.302-.616-.138-1.17-.199-1.586-.168-.616.03-1.031.413-1.031.95v.841a5.708 5.708 0 0 0-2.818-2.281c-2.217-.659-4.527-.077-6.267 2.343a14.203 14.203 0 0 0-2.556 7.242c-.246 2.297-.154 4.61.262 6.585-.508 2.205-1.478 3.124-2.525 3.124-1.524 0-2.618-2.481-2.495-6.738.093-2.817.647-4.793 1.263-7.64.262-1.226.062-1.838-.477-2.45-.493-.567-1.54-.858-3.064-.506-1.078.245-2.618.52-4.004.72 0 0 .077-.322.154-.92.354-3.108-3.048-2.863-4.142-1.867-.646.597-1.077 1.286-1.262 2.557-.262 1.99 1.386 2.925 1.386 2.925a33.947 33.947 0 0 1-5.236 11.07v-1.071c-.015-5.145.047-9.188.077-10.643.031-1.439.093-2.496.093-2.756 0-.551-.339-.765-1.016-1.026a7.266 7.266 0 0 0-2.064-.46c-.924-.076-1.493.414-1.478.996v.796a5.691 5.691 0 0 0-2.833-2.281c-2.217-.659-4.527-.077-6.267 2.343a15.41 15.41 0 0 0-2.556 7.227c-.23 2.404-.2 4.44.139 6.186-.354 1.73-1.37 3.522-2.51 3.522-1.463 0-2.31-1.27-2.31-7.15 0-3.43.108-4.916.154-7.397.031-1.439.093-2.526.093-2.771 0-.766-1.34-1.149-1.956-1.302-.646-.153-1.216-.199-1.632-.153-.57.03-.97.536-.97.919v.857a5.691 5.691 0 0 0-2.833-2.281c-2.217-.659-4.511-.061-6.267 2.343-1.154 1.577-2.078 3.322-2.556 7.197a24.073 24.073 0 0 0-.184 3.123c-.462 2.772-2.48 5.972-4.127 5.972-.97 0-1.894-1.853-1.894-5.819 0-5.282.339-12.8.385-13.52l2.494-.046c1.047 0 1.987.015 3.373-.062.692-.03 1.355-2.511.646-2.817-.323-.138-2.617-.26-3.541-.276-.77-.015-2.895-.168-2.895-.168s.2-4.992.246-5.513c.031-.46-.538-.674-.877-.811-.76-.305-1.55-.53-2.356-.674-1.17-.23-1.694 0-1.802.98-.154 1.485-.23 5.85-.23 5.85-.863 0-3.804-.17-4.65-.17-.801 0-1.663 3.4-.555 3.446l4.927.138-.046 9.999v.72c-.816 4.18-3.65 6.43-3.65 6.43.617-2.755-.646-4.822-2.878-6.583a259.525 259.525 0 0 0-4.296-3.216s1.062-1.041 2.001-3.124c.663-1.47.693-3.154-.939-3.522-2.694-.627-4.927 1.333-5.59 3.446a3.976 3.976 0 0 0 .77 4.073l.232.29c-.616 1.164-1.448 2.726-2.156 3.951-1.955 3.37-3.449 6.049-4.573 6.049-.893 0-.878-2.71-.878-5.252 0-2.19.154-5.482.293-8.882.046-1.133-.524-1.776-1.478-2.358a6.689 6.689 0 0 0-2.525-1.056c-1.078 0-4.158.153-7.083 8.529a112.573 112.573 0 0 1-1.078 2.97l.062-10.06c0-.245-.124-.46-.416-.613a7.236 7.236 0 0 0-2.972-.826c-.554 0-.831.26-.831.765l-.108 15.772c0 1.194.03 2.588.154 3.2.123.613.308 1.103.554 1.394.231.306.508.52.955.612.43.092 2.74.383 2.864-.49.154-1.056.154-2.19 1.37-6.43 1.878-6.6 4.342-9.831 5.512-10.965.2-.214.431-.214.416.108l-.339 8.146c-.308 8.223 1.201 9.739 3.342 9.739 1.647 0 3.972-1.624 6.467-5.727l4.157-6.89 2.433 2.235c1.97 1.837 2.617 3.613 2.186 5.282-.323 1.271-1.57 2.604-3.757 1.317-.647-.382-.924-.673-1.555-1.087-.354-.23-.878-.306-1.201-.061-.816.612-1.294 1.409-1.555 2.373-.262.934.693 1.44 1.678 1.868.847.383 2.68.72 3.85.766 4.526.153 8.16-2.174 10.685-8.177.462 5.176 2.387 8.116 5.728 8.116 2.233 0 4.48-2.879 5.466-5.696.277 1.148.693 2.143 1.232 3 2.587 4.059 7.591 3.17 10.1-.275.77-1.056.894-1.44.894-1.44a4.69 4.69 0 0 0 1.415 3.062 4.74 4.74 0 0 0 3.112 1.334c1.693 0 3.433-.797 4.665-3.538.139.307.308.582.462.858 2.587 4.058 7.591 3.17 10.1-.276l.309-.429.077 2.144-2.31 2.098c-3.88 3.522-6.836 6.202-7.052 9.325-.277 3.982 2.972 5.452 5.435 5.65a6.96 6.96 0 0 0 3.552-.774 6.916 6.916 0 0 0 2.669-2.456c1.201-1.761 2.002-5.559 1.94-9.31l-.092-5.452a43.664 43.664 0 0 0 8.345-14.454s1.432.015 2.956-.077c.493-.03.632.061.539.413-.108.43-1.924 7.412-.262 12.067 1.14 3.185 3.696 4.21 5.236 4.21 1.77 0 3.479-1.332 4.388-3.322l.354.643c2.587 4.058 7.576 3.17 10.101-.276.569-.765.893-1.44.893-1.44.554 3.37 3.187 4.41 4.696 4.41 1.571 0 3.08-.642 4.281-3.49.046 1.255.123 2.281.246 2.603.077.199.523.46.862.566 1.432.52 2.895.276 3.449.169.37-.077.662-.383.708-1.149.108-2.036.047-5.45.663-7.977 1.031-4.273 2.001-5.926 2.463-6.738.262-.46.554-.536.57-.046.015.98.061 3.859.462 7.733.308 2.848.708 4.532 1.001 5.053.877 1.531 1.955 1.608 2.817 1.608.555 0 1.725-.153 1.617-1.118-.046-.475.031-3.4 1.078-7.595.662-2.74 1.771-5.206 2.171-6.125.154-.322.231-.061.231 0-.092 1.868-.277 8.04.493 11.423 1.047 4.563 4.08 5.084 5.142 5.084 2.264 0 4.111-1.715 4.727-6.202.154-1.072-.077-1.914-.739-1.914Z" clip-rule="evenodd"/>
</svg>
