<svg xmlns="http://www.w3.org/2000/svg" width="24" height="24" fill="none" viewBox="0 0 24 24">
  <path fill="#000" d="M12 2.982c2.937 0 3.285.011 4.445.064a6.087 6.087 0 0 1 2.042.379c.478.176.91.458 1.265.823.365.355.647.787.823 1.265.242.654.37 1.345.379 2.042.053 1.16.064 1.508.064 4.445 0 2.937-.011 3.285-.064 4.445a6.086 6.086 0 0 1-.379 2.042 3.641 3.641 0 0 1-2.088 2.088 6.086 6.086 0 0 1-2.042.379c-1.16.053-1.508.064-4.445.064-2.937 0-3.285-.011-4.445-.064a6.087 6.087 0 0 1-2.043-.379 3.408 3.408 0 0 1-1.264-.823 3.408 3.408 0 0 1-.823-1.265 6.087 6.087 0 0 1-.379-2.042c-.053-1.16-.064-1.508-.064-4.445 0-2.937.011-3.285.064-4.445a6.087 6.087 0 0 1 .379-2.042c.176-.478.458-.91.823-1.265a3.408 3.408 0 0 1 1.265-.823 6.087 6.087 0 0 1 2.042-.379c1.16-.053 1.508-.064 4.445-.064ZM12 1c-2.987 0-3.362.013-4.535.066a8.074 8.074 0 0 0-2.67.511c-.734.276-1.4.71-1.949 1.27a5.392 5.392 0 0 0-1.269 1.948 8.074 8.074 0 0 0-.51 2.67C1.012 8.638 1 9.013 1 12s.013 3.362.066 4.535c.018.913.191 1.815.511 2.67.276.734.71 1.4 1.27 1.949.55.56 1.214.993 1.948 1.269.855.32 1.758.492 2.67.51C8.638 22.988 9.013 23 12 23s3.362-.013 4.535-.066a8.074 8.074 0 0 0 2.67-.511 5.626 5.626 0 0 0 3.218-3.218c.32-.855.492-1.758.51-2.67.055-1.173.067-1.548.067-4.535s-.013-3.362-.066-4.535a8.074 8.074 0 0 0-.511-2.67 5.392 5.392 0 0 0-1.27-1.949 5.392 5.392 0 0 0-1.948-1.269 8.074 8.074 0 0 0-2.67-.51C15.362 1.012 14.987 1 12 1Zm0 5.351a5.649 5.649 0 1 0 0 11.298A5.649 5.649 0 0 0 12 6.35Zm0 9.316a3.667 3.667 0 1 1 0-7.335 3.667 3.667 0 0 1 0 7.335Zm5.872-10.859a1.32 1.32 0 1 0 0 2.64 1.32 1.32 0 0 0 0-2.64Z"/>
</svg>
