<svg xmlns="http://www.w3.org/2000/svg" width="24" height="24" fill="none" viewBox="0 0 24 24">
  <g clip-path="url(#a)">
    <path fill="#000" d="M12.075 24C5.415 24 0 18.585 0 11.925 0 5.985 4.245.975 10.08 0c.735-.045 1.305.33 1.485.9.165.57-.075 1.17-.615 1.5C8.4 3.795 6.825 6.435 6.825 9.315c0 4.335 3.525 7.875 7.875 7.875a7.875 7.875 0 0 0 6.915-4.11c.285-.555.915-.81 1.515-.6.63.21.99.84.87 1.515A12.065 12.065 0 0 1 12.075 24ZM8.7 1.98c-4.17 1.395-7.095 5.34-7.095 9.945C1.605 17.7 6.3 22.41 12.09 22.41c4.56 0 8.49-2.895 9.915-7.08a9.451 9.451 0 0 1-7.305 3.465c-5.22 0-9.465-4.245-9.465-9.465A9.428 9.428 0 0 1 8.7 1.98Z"/>
  </g>
  <defs>
    <clipPath id="a">
      <path fill="#fff" d="M0 0h24v24H0z"/>
    </clipPath>
  </defs>
</svg>
