<svg xmlns="http://www.w3.org/2000/svg" width="12" height="12" fill="none" viewBox="0 0 12 12">
  <g clip-path="url(#a)">
    <path fill="#fff" fill-rule="evenodd" d="M.375 3.325C.175 3.325 0 3.5 0 3.7v4.6c0 .2.175.375.375.375H2.55L5.775 11.9c.225.225.625.075.625-.25V9.2c0-.1-.05-.2-.1-.275l-5.5-5.5a.376.376 0 0 0-.275-.1h-.15Zm11.7 7.85L10.7 9.8C11.225 9.15 12 7.85 12 6c0-2.85-1.8-4.35-1.8-4.35a.392.392 0 0 0-.55 0L9.3 2c-.15.15-.15.4 0 .55 0 0 1.425 1.25 1.425 3.45 0 1.35-.525 2.325-.95 2.9l-.9-.9c.275-.425.575-1.1.575-2 0-1.7-1.025-2.575-1.025-2.575a.392.392 0 0 0-.55 0l-.35.35c-.15.15-.15.4 0 .55 0 0 .65.5.65 1.675 0 .45-.1.8-.225 1.075L6.375 5.5V.35c0-.325-.4-.475-.625-.25L3.375 2.5.825-.075a.362.362 0 0 0-.525 0l-.35.35A.362.362 0 0 0-.05.8L1 1.9l6.7 6.7 3.475 3.475c.15.15.375.15.525 0l.35-.35c.175-.15.175-.4.025-.55Z" clip-rule="evenodd"/>
  </g>
  <defs>
    <clipPath id="a">
      <path fill="#fff" d="M0 0h12v12H0z"/>
    </clipPath>
  </defs>
</svg>
