<svg xmlns="http://www.w3.org/2000/svg" width="12" height="12" fill="none" viewBox="0 0 12 12">
  <g clip-path="url(#a)">
    <path fill="#fff" d="M8.318 3.514a.75.75 0 0 0-1.197.904c.348.455.541 1.01.551 1.585A2.689 2.689 0 0 1 7.12 7.59a.75.75 0 1 0 1.197.903c.545-.716.844-1.59.855-2.49-.01-.9-.31-1.772-.854-2.489Zm1.865-1.166a.75.75 0 1 0-1.163.947c.62.768.966 1.721.98 2.708a4.399 4.399 0 0 1-.98 2.708.75.75 0 0 0 1.163.947 5.836 5.836 0 0 0 1.318-3.655 5.84 5.84 0 0 0-1.318-3.655ZM5.702.541a.5.5 0 0 0-.542.094L2.632 3H1a.5.5 0 0 0-.5.5v5.002a.5.5 0 0 0 .5.5h1.632l2.506 2.34.01.011A.5.5 0 0 0 6 10.946L6.003 1a.5.5 0 0 0-.301-.459Z"/>
  </g>
  <defs>
    <clipPath id="a">
      <path fill="#fff" d="M0 0h12v12H0z"/>
    </clipPath>
  </defs>
</svg>
