<svg xmlns="http://www.w3.org/2000/svg" width="24" height="24" fill="none" viewBox="0 0 24 24">
  <path fill="#A8A8A8" fill-rule="evenodd" d="M6.549 5.013a1.557 1.557 0 1 0 0 3.114 1.557 1.557 0 0 0 0-3.114Z" clip-rule="evenodd"/>
  <path stroke="#A8A8A8" stroke-linejoin="round" stroke-width="2" d="m2 18.605 3.901-3.9a.908.908 0 0 1 1.284 0l2.807 2.806a.908.908 0 0 0 1.283 0l5.534-5.534a.908.908 0 0 1 1.283 0l3.905 3.905"/>
  <path stroke="#A8A8A8" stroke-linecap="round" stroke-linejoin="round" stroke-width="2" d="M18.44 2.004A3.56 3.56 0 0 1 22 5.564v12.873a3.56 3.56 0 0 1-3.56 3.56H5.568a3.56 3.56 0 0 1-3.56-3.56V5.563a3.56 3.56 0 0 1 3.56-3.56l12.872.001Z"/>
</svg>
