<svg xmlns="http://www.w3.org/2000/svg" width="20" height="20" fill="none" viewBox="0 0 20 20">
  <g clip-path="url(#a)">
    <path fill="#A8A8A8" d="M13.192 9.164a.972.972 0 1 0 0 1.945.972.972 0 0 0 0-1.945Zm-5.417.973a.972.972 0 1 0-1.945 0 .972.972 0 0 0 1.945 0Zm4.303 2.7a2.838 2.838 0 0 1-4.152.005.833.833 0 1 0-1.298 1.047 4.498 4.498 0 0 0 6.742 0 .833.833 0 0 0-1.292-1.052ZM10 .419a9.583 9.583 0 1 0 9.583 9.583A9.594 9.594 0 0 0 10 .42Zm0 17.5a7.917 7.917 0 1 1 7.917-7.917A7.925 7.925 0 0 1 10 17.92Z"/>
  </g>
  <defs>
    <clipPath id="a">
      <path fill="#fff" d="M0 0h20v20H0z"/>
    </clipPath>
  </defs>
</svg>
