<svg xmlns="http://www.w3.org/2000/svg" width="16" height="16" fill="none" viewBox="0 0 16 16">
  <g clip-path="url(#a)">
    <path fill="#fff" fill-rule="evenodd" d="M12.667 10V3.333A2.67 2.67 0 0 0 10 .667H3.333A2.67 2.67 0 0 0 .667 3.333V10a2.67 2.67 0 0 0 2.666 2.667H10A2.67 2.67 0 0 0 12.667 10ZM2 10V3.333A1.335 1.335 0 0 1 3.333 2H10a1.335 1.335 0 0 1 1.333 1.333V10A1.335 1.335 0 0 1 10 11.333H3.333A1.334 1.334 0 0 1 2 10Zm12.575-5.849A.334.334 0 0 0 14 4.38V10a4 4 0 0 1-4 4H4.387a.336.336 0 0 0-.234.576A2.629 2.629 0 0 0 6 15.333h4A5.333 5.333 0 0 0 15.333 10V6c0-.692-.272-1.356-.758-1.849Z" clip-rule="evenodd"/>
  </g>
  <defs>
    <clipPath id="a">
      <path fill="#fff" d="M0 0h16v16H0z"/>
    </clipPath>
  </defs>
</svg>
