<svg xmlns="http://www.w3.org/2000/svg" width="16" height="16" fill="none" viewBox="0 0 16 16">
  <g clip-path="url(#a)">
    <path fill="#fff" d="m15.138 14.195-3.217-3.216a6.347 6.347 0 1 0-.942.942l3.216 3.217a.667.667 0 0 0 .943-.943ZM7 12.001a5 5 0 1 1 5-5 5.006 5.006 0 0 1-5 5Zm2.333-5.667H7.667V4.667a.667.667 0 0 0-1.334 0v1.667H4.667a.667.667 0 0 0 0 1.333h1.666v1.667a.667.667 0 1 0 1.334 0V7.667h1.666a.667.667 0 0 0 0-1.333Z"/>
  </g>
  <defs>
    <clipPath id="a">
      <path fill="#fff" d="M0 0h16v16H0z"/>
    </clipPath>
  </defs>
</svg>
