<?xml version="1.0" standalone="no"?>
<!DOCTYPE svg PUBLIC "-//W3C//DTD SVG 20010904//EN"
 "http://www.w3.org/TR/2001/REC-SVG-20010904/DTD/svg10.dtd">
<svg version="1.0" xmlns="http://www.w3.org/2000/svg"
 width="260.000000pt" height="260.000000pt" viewBox="0 0 260.000000 260.000000"
 preserveAspectRatio="xMidYMid meet">
<metadata>
Created by potrace 1.14, written by Peter Selinger 2001-2017
</metadata>
<g transform="translate(0.000000,260.000000) scale(0.100000,-0.100000)"
fill="#000000" stroke="none">
<path d="M495 2593 c-218 -30 -395 -178 -468 -393 -22 -65 -22 -70 -25 -855
-2 -527 1 -813 8 -859 31 -203 171 -374 363 -445 104 -38 213 -42 1007 -39
700 3 759 5 810 22 164 55 283 156 349 298 22 46 44 110 50 142 7 40 11 322
11 840 0 860 0 857 -62 983 -45 92 -140 191 -226 236 -145 76 -84 71 -982 73
-443 1 -818 0 -835 -3z m1165 -343 c88 -5 179 -16 210 -26 182 -54 300 -172
354 -354 32 -107 47 -614 27 -941 -7 -114 -15 -163 -36 -224 -47 -140 -126
-233 -250 -294 -111 -54 -175 -61 -560 -68 -414 -6 -595 4 -703 41 -183 62
-296 192 -337 391 -37 179 -30 961 11 1095 55 184 179 306 361 356 110 30 609
43 923 24z"/>
<path d="M845 2079 c-194 -29 -297 -134 -324 -332 -14 -102 -14 -777 0 -887
26 -210 136 -317 350 -340 125 -13 762 -13 869 1 203 25 312 131 339 332 14
102 14 791 0 894 -27 198 -134 305 -332 332 -93 13 -814 13 -902 0z m1044
-190 c41 -41 43 -103 5 -148 -71 -85 -211 -17 -190 92 16 84 124 117 185 56z
m-480 -114 c236 -56 399 -279 377 -517 -29 -319 -354 -527 -651 -417 -218 80
-354 309 -317 532 47 283 317 466 591 402z"/>
<path d="M1210 1611 c-82 -27 -159 -91 -198 -165 -24 -45 -27 -62 -27 -146 0
-84 3 -101 27 -145 32 -60 87 -114 148 -146 38 -20 60 -24 140 -24 80 0 102 4
140 24 61 32 116 86 148 146 24 44 27 61 27 145 0 108 -17 153 -84 223 -58 62
-122 90 -216 93 -44 2 -91 0 -105 -5z"/>
</g>
</svg>
